<svg xmlns="http://www.w3.org/2000/svg" xmlns:xlink="http://www.w3.org/1999/xlink" viewBox="0 0 391.84 327.5"><defs><style>.cls-1{fill:#009777;}.cls-2{fill:#eeeaed;}.cls-3{fill:#68838c;}.cls-4{fill:#49bad4;}.cls-5{fill:#158171;}.cls-6{fill:#5cbab7;}.cls-7,.cls-9{fill:#fff;}.cls-19,.cls-27,.cls-7{opacity:0.2;}.cls-8{fill:#086453;}.cls-10{fill:#ef9426;}.cls-11{fill:#e8c98b;}.cls-12{fill:#c66b28;}.cls-13{fill:#155281;}.cls-14{fill:#5c86ba;}.cls-15{fill:#083f64;}.cls-16{fill:#399aaa;}.cls-17{fill:#59a3ca;}.cls-18{fill:#a8def2;}.cls-19,.cls-20{fill:#231f20;}.cls-21{fill:#494647;}.cls-22{fill:#606060;}.cls-23,.cls-30,.cls-33,.cls-39{fill:none;stroke-miterlimit:10;}.cls-23{stroke:#a8a8a8;stroke-width:2px;}.cls-24{fill:#a8a8a8;}.cls-25{fill:#008964;}.cls-26{fill:#663b1e;}.cls-28{fill:#dd9b6f;}.cls-29{fill:#23505b;}.cls-30{stroke:#2f6270;}.cls-31{fill:#2f6270;}.cls-32{fill:#edb188;}.cls-33{stroke:#488593;}.cls-34{clip-path:url(#clip-path);}.cls-35{fill:#774b2a;}.cls-36{clip-path:url(#clip-path-2);}.cls-37{clip-path:url(#clip-path-3);}.cls-38{fill:#c95b59;}.cls-39{stroke:#506d75;}.cls-40{fill:#442c1b;}</style><clipPath id="clip-path"><path class="cls-1" d="M278.28,177.4c-1.42,9.42-.86,21.62-.49,31.11,0,0-29.72-2.74-33.17-3.24l-.61-.09c-3-.48-5.87-1.15-8.81-1.72,0,0,3.22-14.15,3.31-15.09.86-8.33,1.59-16.64,1.74-25,.07-4.08,0-8.16-.11-12.24-.07-3.6,0-7.64,1.64-10.92,1.1-2.17,2.95-2.38,5.21-2.33,10.19.25,20.29,1.61,30.42,2.73a11,11,0,0,1,3.32.71c3.11,1.38,2.74,4.89,2.46,7.7C282.22,158.55,279.71,167.91,278.28,177.4Z"/></clipPath><clipPath id="clip-path-2"><polygon class="cls-2" points="354.02 87.05 338.28 121.59 359.58 124.41 354.02 87.05"/></clipPath><clipPath id="clip-path-3"><path class="cls-3" d="M312.07,288.87l22.52,3.4-3.42,23.28a3.87,3.87,0,0,1-4.39,3.26l-15.56-2.27A3.88,3.88,0,0,1,308,312Z"/></clipPath></defs><g id="Layer_2" data-name="Layer 2"><g id="OBJECTS"><path class="cls-4" d="M390.63,232c-5.64,28.95-10.21,59.65-20.38,87.49H54.35C34,304.62,15.51,278.59,24.5,252.29c5.9-17.26,26.15-27.62,24.85-47.63-.59-9.22-5.75-16.54-9.23-24.82-8.2-19.47-15.11-50.11-2.55-69.22C53.66,86.15,91.33,88.9,115.09,77.74c12.88-6,23.35-16.25,33.07-26.71,7.07-7.6,14-15.53,22.64-21.23,17.75-11.69,42.16-12.17,60.35-1.18,18.48,11.17,30.38,30.92,54.44,26.63,10-1.79,20.13-5.64,30.23-2.88a41.94,41.94,0,0,1,24.35,18.8c14.61,24.65-9.21,50.71.75,76.17,7.43,19,28.84,26.1,40.78,41.44C391.3,201.12,393.58,216.83,390.63,232Z"/><path class="cls-5" d="M80,248.92l-8.2-9-10.42,6.65.26.29A28.28,28.28,0,0,0,55.56,244l.39,0-1.53-12.27-12.17-.56-2.66,12.07.39,0a28.14,28.14,0,0,0-6.32,2.28l.29-.26-9.76-7.59-9,8.21,6.65,10.41.29-.26a28.5,28.5,0,0,0-2.85,6.08l0-.39L7,263.31l-.56,12.17,12.07,2.66,0-.39a28.24,28.24,0,0,0,2.28,6.31l-.26-.28L13,293.54l8.21,9,10.41-6.66-.26-.29a28.54,28.54,0,0,0,6.08,2.86l-.39,0,1.54,12.26,12.17.57,2.66-12.08H53a29.26,29.26,0,0,0,6.31-2.28l-.28.26,9.76,7.58,9-8.2-6.66-10.42-.29.26a28.32,28.32,0,0,0,2.86-6.08l0,.39L86,279.15,86.53,267l-12.08-2.66v.39a29.15,29.15,0,0,0-2.28-6.32l.26.29Z"/><circle class="cls-6" cx="46.5" cy="271.23" r="24.88" transform="translate(-101.31 39.11) rotate(-22.76)"/><path class="cls-7" d="M59.32,245.57A27.34,27.34,0,0,0,55.56,244l.39,0-1.53-12.27-12.17-.56-2.66,12.07.39,0a28.14,28.14,0,0,0-6.32,2.28l.29-.26-9.76-7.59-9,8.21,6.65,10.41.29-.26a28.5,28.5,0,0,0-2.85,6.08l0-.39L7,263.31l-.56,12.17,12.07,2.66,0-.39a28.24,28.24,0,0,0,2.28,6.31l-.26-.28L13,293.54l8.21,9,10.41-6.66-.26-.29a25.37,25.37,0,0,0,2.33,1.29Z"/><circle class="cls-8" cx="46.5" cy="271.23" r="18.69" transform="translate(-218.56 197.28) rotate(-64.68)"/><circle class="cls-9" cx="46.5" cy="271.23" r="13" transform="translate(-104.65 41.27) rotate(-23.59)"/><path class="cls-10" d="M40.44,186.85l-6.72-3.68-4.83,6.09.21.11a17.57,17.57,0,0,0-4.19-.45l.23-.07-3.42-7L14.38,184l.88,7.72.24-.07a17.7,17.7,0,0,0-3.29,2.65l.11-.22L5,191.59,1.3,198.3l6.08,4.83.12-.21a18.14,18.14,0,0,0-.46,4.2L7,206.88,0,210.3l2.15,7.35,7.72-.89-.07-.23a18.41,18.41,0,0,0,2.64,3.29l-.21-.12-2.52,7.35,6.72,3.67,4.83-6.08-.21-.12a18.12,18.12,0,0,0,4.19.46l-.23.07,3.42,7,7.34-2.15-.88-7.71-.23.06a17.92,17.92,0,0,0,3.28-2.64l-.11.21,7.35,2.52,3.67-6.72-6.08-4.83-.12.22a18.2,18.2,0,0,0,.46-4.2l.06.23,7-3.41L48,196.25l-7.72.88.07.24a18.06,18.06,0,0,0-2.64-3.29l.21.12Z"/><circle class="cls-11" cx="25.08" cy="206.95" r="15.64" transform="translate(-137.74 76.77) rotate(-44.45)"/><path class="cls-7" d="M27.46,189.08a18.19,18.19,0,0,0-2.55-.16l.23-.07-3.42-7L14.38,184l.88,7.72.24-.07a17.7,17.7,0,0,0-3.29,2.65l.11-.22L5,191.59,1.3,198.3l6.08,4.83.12-.21a18.14,18.14,0,0,0-.46,4.2L7,206.88,0,210.3l2.15,7.35,7.72-.89-.07-.23a18.41,18.41,0,0,0,2.64,3.29l-.21-.12-2.52,7.35,6.72,3.67,4.83-6.08-.21-.12a15.21,15.21,0,0,0,1.64.29Z"/><circle class="cls-12" cx="25.08" cy="206.95" r="11.75" transform="translate(-57.12 15.38) rotate(-16.31)"/><circle class="cls-9" cx="25.08" cy="206.95" r="8.17" transform="translate(-161.15 113.27) rotate(-56.39)"/><path class="cls-13" d="M315.46,198.81l11.84,2.85L326.49,214l-.38-.09a28.49,28.49,0,0,1,5.43,3.95l-.2-.33L342.83,213l6.36,10.39-9.3,8.15-.2-.33a28.76,28.76,0,0,1,1.05,6.63l.09-.38,11.35,4.89-2.85,11.85L337,253.34l.09-.38a28.49,28.49,0,0,1-3.95,5.43l.33-.2L338,269.67,327.65,276l-8.15-9.29.33-.2a28.76,28.76,0,0,1-6.63,1l.38.09L308.69,279l-11.85-2.85.81-12.34.38.1A28.49,28.49,0,0,1,292.6,260l.2.33-11.49,4.57L275,254.5l9.29-8.15.2.33a28.84,28.84,0,0,1-1.05-6.63l-.09.37L272,235.53l2.85-11.84,12.33.81-.09.37a28.81,28.81,0,0,1,3.95-5.43l-.33.21-4.57-11.49,10.39-6.36,8.15,9.29-.33.21a28.23,28.23,0,0,1,6.63-1.05l-.38-.09Z"/><circle class="cls-14" cx="312.07" cy="238.92" r="24.88" transform="translate(-78.83 198.08) rotate(-31.47)"/><path class="cls-7" d="M328.36,215.32a27,27,0,0,1,3.18,2.53l-.2-.33L342.83,213l6.36,10.39-9.3,8.15-.2-.33a28.76,28.76,0,0,1,1.05,6.63l.09-.38,11.35,4.89-2.85,11.85L337,253.34l.09-.38a28.49,28.49,0,0,1-3.95,5.43l.33-.2L338,269.67,327.65,276l-8.15-9.29.33-.2a28.76,28.76,0,0,1-6.63,1l.38.09L308.69,279l-11.85-2.85.81-12.34.38.1c-.78-.44-1.53-.92-2.25-1.42Z"/><circle class="cls-15" cx="312.07" cy="238.92" r="18.69" transform="translate(-62.05 359.35) rotate(-55.28)"/><circle class="cls-9" cx="312.07" cy="238.92" r="13" transform="translate(-77.54 290.64) rotate(-45)"/><path class="cls-5" d="M390.51,272.56l1.24,7.56-7.34,2.54,0-.24a17.7,17.7,0,0,1-1,4.11l.14-.2,5.45,5.54-4.46,6.22-7-3.4.14-.2a17.33,17.33,0,0,1-3.58,2.23l.24,0-.07,7.77-7.55,1.24-2.54-7.34.24,0a18.23,18.23,0,0,1-4.11-1l.2.14L355,302.94l-6.22-4.47,3.4-7,.19.15a18.08,18.08,0,0,1-2.22-3.59l0,.24-7.77-.06-1.24-7.56,7.34-2.54,0,.24a18.48,18.48,0,0,1,1-4.11l-.14.2-5.45-5.53,4.47-6.22,7,3.39-.14.2a18.3,18.3,0,0,1,3.59-2.23l-.24,0,.06-7.77,7.55-1.24,2.55,7.35-.24,0a17.76,17.76,0,0,1,4.1,1l-.19-.15,5.53-5.44,6.22,4.46-3.39,7-.2-.14a18.23,18.23,0,0,1,2.23,3.58l0-.24Z"/><circle class="cls-6" cx="366.46" cy="280.39" r="15.64" transform="translate(51.97 618.04) rotate(-84.46)"/><path class="cls-7" d="M384.1,284.07a17.25,17.25,0,0,1-.69,2.46l.14-.2,5.45,5.54-4.46,6.22-7-3.4.14-.2a17.33,17.33,0,0,1-3.58,2.23l.24,0-.07,7.77-7.55,1.24-2.54-7.34.24,0a18.23,18.23,0,0,1-4.11-1l.2.14L355,302.94l-6.22-4.47,3.4-7,.19.15a18.08,18.08,0,0,1-2.22-3.59l0,.24-7.77-.06-1.24-7.56,7.34-2.54,0,.24c.06-.55.16-1.1.27-1.65Z"/><path class="cls-8" d="M378.05,278.49A11.74,11.74,0,1,0,368.36,292,11.75,11.75,0,0,0,378.05,278.49Z"/><circle class="cls-9" cx="366.46" cy="280.39" r="8.17" transform="translate(27.49 593.46) rotate(-80.15)"/><ellipse class="cls-16" cx="211.89" cy="319.44" rx="160" ry="8.06"/><path class="cls-17" d="M62.75,62.35l21,240.28a15.5,15.5,0,0,0,16.19,14.12l162.65-8a15.49,15.49,0,0,0,14.7-16.37L263.15,50.3A15.48,15.48,0,0,0,246.8,35.74L77.28,45.54A15.48,15.48,0,0,0,62.75,62.35Z"/><path class="cls-18" d="M65.76,64.54l21,240.27a15.49,15.49,0,0,0,16.19,14.12l162.65-8a15.48,15.48,0,0,0,14.7-16.37L266.16,52.49a15.47,15.47,0,0,0-16.35-14.56L80.29,47.73A15.48,15.48,0,0,0,65.76,64.54Z"/><polygon class="cls-19" points="82.01 59.83 99.86 295.79 259.19 289.52 243.43 55.69 82.01 59.83"/><polygon class="cls-9" points="82.01 59.83 106.1 299.87 263.97 291.7 248.06 55.53 82.01 59.83"/><path class="cls-20" d="M110.43,41.61l2.49,24.25,100.61-5.6-1.3-27.55c-.17-3.55-2.45-6.25-5.09-6L114.9,34.29C112.11,34.52,110.05,37.89,110.43,41.61Z"/><polygon class="cls-19" points="112.92 65.86 216.17 60.26 215.21 39.92 107.43 46.15 112.92 65.86"/><path class="cls-20" d="M177.06,5.47c-5.88-6-15.74-6.51-23.36-4.22-8,2.4-12.68,10-13,17.56-.3,6.6,2.65,13.22,9.5,16.47,9.56,4.54,23.17.87,28.61-8.36C182.64,20.36,182.62,11.11,177.06,5.47ZM166.45,25c-3.13,2.41-7.63,1.63-10.72-.67a9.91,9.91,0,0,1-2.15-2.19c-6-8.65,9.5-17.52,15-9.09C171.05,16.72,169.9,22.33,166.45,25Z"/><path class="cls-21" d="M113.08,41.61l2.48,24.25,100.61-5.6-1.3-27.55c-.17-3.55-2.45-6.25-5.09-6l-92.24,7.62C114.75,34.52,112.7,37.89,113.08,41.61Z"/><path class="cls-21" d="M180.61,5.47c-5.88-6-15.74-6.51-23.36-4.22-8,2.4-12.68,10-13,17.56-.31,6.6,2.65,13.22,9.5,16.47,9.55,4.54,23.17.87,28.61-8.36C186.19,20.36,186.17,11.11,180.61,5.47ZM170,25c-3.13,2.41-7.63,1.63-10.72-.67a9.91,9.91,0,0,1-2.15-2.19c-6-8.65,9.5-17.52,15-9.09C174.6,16.72,173.45,22.33,170,25Z"/><polygon class="cls-22" points="114.5 55.53 215.73 51.02 216.17 60.26 115.56 65.86 114.5 55.53"/><path class="cls-23" d="M111,116.43l18.52-1.35a2.58,2.58,0,0,1,2.76,2.38l1.11,14.67a2.57,2.57,0,0,1-2.36,2.76l-18.51,1.52a2.58,2.58,0,0,1-2.79-2.38l-1.11-14.83A2.57,2.57,0,0,1,111,116.43Z"/><path class="cls-24" d="M146.12,118.86l24.31-1.76,38.73-2.8,8.86-.64a2.56,2.56,0,0,0,2.5-2.5,2.51,2.51,0,0,0-2.5-2.5l-24.31,1.76L155,113.22l-8.86.64a2.55,2.55,0,0,0-2.5,2.5,2.53,2.53,0,0,0,2.5,2.5Z"/><path class="cls-24" d="M148.62,132.89l24.31-1.76,38.73-2.8,8.86-.64a2.56,2.56,0,0,0,2.5-2.5,2.51,2.51,0,0,0-2.5-2.5l-24.31,1.76-38.73,2.8-8.86.64a2.56,2.56,0,0,0-2.5,2.5,2.51,2.51,0,0,0,2.5,2.5Z"/><path class="cls-1" d="M106.59,126.25l10.11,7.85c1.22,1,3.06,1,3.92-.51L134,109.68l1.9-3.4c1.58-2.82-2.74-5.34-4.31-2.53l-13.37,23.91-1.9,3.41,3.92-.51-10.11-7.85a2.58,2.58,0,0,0-3.53,0,2.53,2.53,0,0,0,0,3.54Z"/><path class="cls-23" d="M116.7,165.38l17.58-1.65a2.58,2.58,0,0,1,2.79,2.16l2.34,14.49a2.58,2.58,0,0,1-2.34,3l-18.37,1.5a2.58,2.58,0,0,1-2.78-2.29l-1.55-14.34A2.6,2.6,0,0,1,116.7,165.38Z"/><path class="cls-24" d="M152.34,167.31l24.31-1.76,38.73-2.8,8.87-.64a2.56,2.56,0,0,0,2.5-2.5,2.52,2.52,0,0,0-2.5-2.5l-24.31,1.75-38.73,2.8-8.87.65a2.5,2.5,0,1,0,0,5Z"/><path class="cls-24" d="M154.84,181.34l24.31-1.76,38.74-2.8,8.86-.64a2.56,2.56,0,0,0,2.5-2.5,2.52,2.52,0,0,0-2.5-2.5l-24.31,1.76-38.73,2.8-8.87.64a2.57,2.57,0,0,0-2.5,2.5,2.52,2.52,0,0,0,2.5,2.5Z"/><path class="cls-1" d="M112.81,174.7l10.11,7.85c1.23.95,3.06,1,3.93-.51l13.37-23.91,1.9-3.41c1.57-2.81-2.74-5.33-4.32-2.52l-13.36,23.91-1.91,3.41,3.93-.51-10.11-7.85a2.58,2.58,0,0,0-3.54,0,2.53,2.53,0,0,0,0,3.54Z"/><path class="cls-23" d="M122.8,219l18.54-1.35a2.58,2.58,0,0,1,2.74,2.22l2,14.59a2.58,2.58,0,0,1-2.34,2.93l-18.71,1.53a2.58,2.58,0,0,1-2.77-2.25l-1.86-14.77A2.59,2.59,0,0,1,122.8,219Z"/><path class="cls-24" d="M157.74,221.43l24.32-1.76,38.73-2.8,8.86-.64a2.56,2.56,0,0,0,2.5-2.5,2.51,2.51,0,0,0-2.5-2.5L205.34,213l-38.73,2.8-8.87.64a2.57,2.57,0,0,0-2.5,2.5,2.52,2.52,0,0,0,2.5,2.5Z"/><path class="cls-24" d="M160.25,235.46l24.31-1.76,38.73-2.8,8.86-.64a2.55,2.55,0,0,0,2.5-2.5,2.53,2.53,0,0,0-2.5-2.5L207.84,227l-38.73,2.8-8.86.64a2.56,2.56,0,0,0-2.5,2.5,2.51,2.51,0,0,0,2.5,2.5Z"/><path class="cls-1" d="M118.22,228.82l10.11,7.85c1.22,1,3.06,1,3.92-.51l13.37-23.91,1.9-3.4c1.58-2.81-2.74-5.34-4.31-2.53l-13.37,23.92-1.91,3.4,3.93-.5-10.11-7.86a2.59,2.59,0,0,0-3.53,0,2.51,2.51,0,0,0,0,3.54Z"/><path class="cls-19" d="M269.45,301.45c-.45,1.63-.88,3.27-1.2,4.94-.06.34-.13.7-.19,1.06a8.27,8.27,0,0,1-1.08,3.08c-.08.12-.18.22-.27.33a15.46,15.46,0,0,0,13.67-16.27l-.22-3.81-.07-.06a18.43,18.43,0,0,0-1.65-1.26l.18-.22s-5.19-8.47-5.42-8.82c-4.45-6.93-4.71-7-10.22-13.09q-1.61-1.79-3.23-3.54c.31-1.91.65-3.81,1-5.74,1.79-8.37,4.16-16.59,6.16-24.9,1-4.21,2-8.52,2.7-12.87h0l0,0a69.3,69.3,0,0,0,.86-9l1.75.15h0v-.22h0c-.37-9.46-.91-21.54.5-30.89.23-1.54.5-3.08.78-4.62l-1.88-32.22-2.59-.3a3.43,3.43,0,0,0-.34-1.57,8,8,0,0,0-4.44-3.9c.22-1.25.51-2.5.85-3.73a26.43,26.43,0,0,0,4.82-4,.34.34,0,0,0,0,.1,7,7,0,0,0,.9-.23l-2.23-38.26a41.92,41.92,0,0,0-19.9-1c-2.28.45-4.84,1.24-6.54,2.92l-.06.06h0a4.77,4.77,0,0,0-1.29,2.84,7.1,7.1,0,0,0,.56,3.35,8.25,8.25,0,0,0,1.91,2.61.14.14,0,0,0,0,.06,29.9,29.9,0,0,0-.73,11.15,11.37,11.37,0,0,0,.54,2.59c0,.14,0,.28,0,.41a34.88,34.88,0,0,0-.11,3.54,44.19,44.19,0,0,0,1.07,8.79h0c.08.4.18.79.29,1.17,0,.14.09.28.13.41s.15.48.24.71.12.33.19.5.16.38.25.56a9.78,9.78,0,0,0,.52,1l.23.39c.13.19.28.36.42.54l.26.31c.15.17.31.33.48.49l.3.25a7.27,7.27,0,0,0,2.88,1.47c.62.15,1.23.26,1.84.35,0,.11,0,.19,0,.22l-.09.52a13.49,13.49,0,0,0-2.26,1,5.33,5.33,0,0,0-2.1,2.27c-1.8-.11-3.61-.2-5.43-.25l-.69,0h-.82a5.26,5.26,0,0,0-3.22.89,5.92,5.92,0,0,0-1.84,1.15l0,0a34.19,34.19,0,0,0-4.21,4.87l-1.09,1.46c-.48.64-1,1.29-1.47,1.91-.31.39-.63.78-1,1.16-2.45,2.79-5,5.46-7.67,8.08l-2.65,2.6c-2.21,2.14-4.85,4.23-7,6.62a16.15,16.15,0,0,0-1.18,1.5,7.83,7.83,0,0,0-1.55,4.24,6.66,6.66,0,0,0,0,1,21.15,21.15,0,0,0,.91,4.27c.11.35.23.71.36,1.06a48.66,48.66,0,0,0,2.64,5.91l.36.7c.38.7.75,1.39,1.13,2.07q.24.45.48.87l.85,1.54.4.74,1,1.83,1.77,3.33,1.36,2.52.69,1.28c1.19,2.18,2.34,4.26,3.19,5.69a5.24,5.24,0,0,0,.18,2.19,4.08,4.08,0,0,0,2.3,2.64,9.39,9.39,0,0,0,1.52.57c-.14.36-.27.71-.42,1.07-2.94,7.28-4.6,14.95-7.13,22.35a32.07,32.07,0,0,0-1.67,7c-.4,3.92.34,7.75,3.52,10.83.29.28.6.55.92.81,1.89,1.55,4.07,2.63,6.07,4l1,.71c2.11,1.61,4.17,3.25,6.17,5,.66.57,1.32,1.16,2,1.76,2.4,2.21,4.7,4.53,6.95,6.88,0,1.72,0,3.44,0,5.16-.26,10.19-1.68,20.92-3.11,31l-9.69.55h0l-.68,0a19.49,19.49,0,0,1-2.26-.08h0l-.6,0h-.78l-.58,0h-.05a4.6,4.6,0,0,0-.52.06l-.16,0-.43.11-.12,0a2.91,2.91,0,0,0-.51.22l-.12.06-.38.25-.13.11a3.55,3.55,0,0,0-.44.43h0a4.43,4.43,0,0,0-.71,1.23l31.37-1.54c0-.12,0-.24,0-.36l.91,0c.43,0,1.41-5.33,1.54-5.94q.61-2.87,1-5.77a92.44,92.44,0,0,0,.59-10l2.27,2.68c1.32,1.55,2.67,3.08,4.07,4.52a47.7,47.7,0,0,0,4.33,4h0l.09-.06,0,0c.11-.1.31-.31.57-.6,0,0,0,.05,0,.08a3.53,3.53,0,0,1-.08.72Q269.55,301.11,269.45,301.45ZM234.64,166.27c-.15,8.38-.87,16.7-1.73,25,0,.36-.54,2.66-1.14,5.36L227,187.12c-.82-1.65-1.59-3.3-2.25-5-.56-1.46-1.56-2.87-1.55-4.5a5.57,5.57,0,0,1,2-3.94c3.13-3,6.31-6,9.42-9.1C234.65,165.13,234.65,165.7,234.64,166.27Zm10.64,76.65q-.17,3.5-.31,7c-2-1.52-4-3-6.1-4.36-1-.65,2-7.5,2.34-8.44,1.41-3.87,3.18-7.64,4.91-11.43Q245.69,234.3,245.28,242.92Z"/><path class="cls-25" d="M216.09,166.62c-1.72,2-3,4-2.7,6.73.58,5.66,4,11.54,6.74,16.43.75,1.37,6.48,12.32,8.77,16.05l7-4.74a5.92,5.92,0,0,0,2.41-2.45c.61-1.52-.13-3.21-.86-4.68q-2.43-4.87-4.85-9.76c-.83-1.66-1.59-3.31-2.25-5-.56-1.45-1.56-2.87-1.56-4.5a5.54,5.54,0,0,1,2-3.93c4.79-4.67,9.72-9.19,14.29-14.08,3.86-4.11,8.87-9.94,4.32-15.52a8.82,8.82,0,0,0-2.54-2,4.66,4.66,0,0,0-5.81.76c-3,2.66-5.13,6.41-7.76,9.42-3.26,3.73-6.77,7.23-10.32,10.68C220.83,162.14,218.18,164.23,216.09,166.62Z"/><path class="cls-19" d="M222.66,190.46c-2.7-4.89-6.16-10.76-6.74-16.42-.27-2.71,1-4.77,2.7-6.73,2.09-2.4,4.74-4.48,6.95-6.63,3.54-3.45,7.06-7,10.32-10.68,2.62-3,4.8-6.75,7.75-9.42a5,5,0,0,1,3.3-1.43h0a4.66,4.66,0,0,0-5.81.76c-3,2.66-5.13,6.41-7.76,9.42-3.26,3.73-6.77,7.23-10.32,10.68-2.2,2.14-4.85,4.23-6.94,6.62-1.72,2-3,4-2.7,6.73.58,5.66,4,11.54,6.74,16.43.75,1.37,6.48,12.32,8.77,16.05l1.53-1C227.78,200.19,223.32,191.66,222.66,190.46Z"/><path class="cls-26" d="M229,314.52c.78,1,2.17,1.12,3.39,1.14l25.31.49a1.55,1.55,0,0,0,.93-.19,1.65,1.65,0,0,0,.52-1,27,27,0,0,0,.76-7.05c-1.37-1.36-3.44-1.34-5.3-1.23l-18.29,1c-2.35.14-5.29-.91-7.09,1.2A4.64,4.64,0,0,0,229,314.52Z"/><path class="cls-26" d="M288.38,296.43a9.11,9.11,0,0,0,.71-4.42c-.35-1.73-2.11-3.12-3.39-4.22a27,27,0,0,0-3.4-2.4,2.67,2.67,0,0,0-1.48-.53,2.56,2.56,0,0,0-1.33.67,16.08,16.08,0,0,0-4.95,5.82,7.09,7.09,0,0,0-.57,1.7,2.91,2.91,0,0,0,.41,2.27c.43.56.93,1,.94,1.8a5.24,5.24,0,0,1-.26,1.41c-.46,1.63-.89,3.27-1.2,4.93a11.09,11.09,0,0,1-1.27,4.14,6.64,6.64,0,0,1-2.17,1.79c-1.94,1.18-3.74,5-1,6.29A5.2,5.2,0,0,0,272,316c2.24-.11,4.5.08,6.74-.09,1.74-.13,2.69-1.46,3.39-2.92A141.8,141.8,0,0,0,288.38,296.43Z"/><g class="cls-27"><path class="cls-20" d="M238.67,307.7l18.26-1a15.77,15.77,0,0,0-2.28,0l-17.61,1A15,15,0,0,0,238.67,307.7Z"/><path class="cls-20" d="M234.75,315.66c-1.23,0-2.61-.13-3.39-1.14a4.62,4.62,0,0,1,.23-5.62,3.73,3.73,0,0,1,2.51-1.28c-1.77-.13-3.58-.18-4.83,1.28a4.64,4.64,0,0,0-.23,5.62c.78,1,2.17,1.12,3.39,1.14l25.31.49a3.23,3.23,0,0,0,.53,0Z"/></g><g class="cls-27"><path class="cls-20" d="M271.75,315.68c-2.76-1.31-1-5.11,1-6.29a6.64,6.64,0,0,0,2.17-1.79,10.91,10.91,0,0,0,1.27-4.14c.31-1.66.74-3.3,1.2-4.93a5.24,5.24,0,0,0,.26-1.41c0-.83-.5-1.24-.93-1.8a2.92,2.92,0,0,1-.42-2.27,8.09,8.09,0,0,1,.57-1.7,16.18,16.18,0,0,1,4.95-5.82c.11-.08.21-.17.32-.24a2.35,2.35,0,0,0-1.3-.43,2.56,2.56,0,0,0-1.33.67,16.08,16.08,0,0,0-4.95,5.82,7.09,7.09,0,0,0-.57,1.7,2.91,2.91,0,0,0,.41,2.27c.43.56.93,1,.94,1.8a5.24,5.24,0,0,1-.26,1.41c-.46,1.63-.89,3.27-1.2,4.93a11.09,11.09,0,0,1-1.27,4.14,6.64,6.64,0,0,1-2.17,1.79c-1.94,1.18-3.74,5-1,6.29A5.2,5.2,0,0,0,272,316c.35,0,.7,0,1.06,0A4.1,4.1,0,0,1,271.75,315.68Z"/><path class="cls-20" d="M275.37,316c.61,0,1.23,0,1.84,0Z"/></g><path class="cls-26" d="M252.33,116.21a1.83,1.83,0,0,0,1.33-1.32,21.47,21.47,0,0,0,1.08-5.09c.39-3.41,1.44-8.45-.6-11.46-1.62-2.38-4.59-1.31-5.32,1.19a29.9,29.9,0,0,0-.73,11.15,8.73,8.73,0,0,0,1.12,3.82A3.41,3.41,0,0,0,252.33,116.21Z"/><path class="cls-28" d="M231,210a11.32,11.32,0,0,0,1.55.58c2.33.68,4.05,0,5.92-1.52a9.45,9.45,0,0,0,3.28-4.91,6.54,6.54,0,0,0-1.14-5.68,5,5,0,0,0-5.4-1.62,9,9,0,0,0-2.27,1.4,12,12,0,0,0-3.79,4.76,6.07,6.07,0,0,0-.45,4.34A4.18,4.18,0,0,0,231,210Z"/><path class="cls-28" d="M269.42,144.67a27.81,27.81,0,0,1-7.56.55c-1.35-.06-5.52.33-6.06-1.21a3.34,3.34,0,0,1-.11-1.26,29.93,29.93,0,0,1,.95-3.87c.3-1.51.69-3,.91-4.53.05-.33.32-3.54.67-3.59l13.13-1.85A36.86,36.86,0,0,0,269.42,144.67Z"/><path class="cls-1" d="M297.31,146.15l1,.24q12.59,3.12,25.39,5.21c3.82.62,7.63,1.12,11.48,1.49,2.95.32,6.28.78,8.24,3.28a6.66,6.66,0,0,1,.73,1.16,4.38,4.38,0,0,1,.23.54,4.71,4.71,0,0,1-1.67,5.59,7.48,7.48,0,0,1-3.5.78,102.29,102.29,0,0,1-14.33-.29C309.9,162.8,295.26,159,280.59,156c-1.93-.39-4-.88-5.24-2.42-1.9-2.4-.81-5.61.12-8.17a12.26,12.26,0,0,1,1.06-2.37c2-3.17,6.53-.82,9.23,0C289.59,144.13,293.44,145.17,297.31,146.15Z"/><path class="cls-19" d="M342.67,161.83a7.48,7.48,0,0,1-3.5.78,102.29,102.29,0,0,1-14.33-.29c-14.94-1.34-29.58-5.17-44.25-8.16-1.93-.39-4-.88-5.24-2.42a4.71,4.71,0,0,1-1-2.38,5.37,5.37,0,0,0,1,4.21c1.22,1.54,3.31,2,5.24,2.42,14.67,3,29.31,6.81,44.25,8.16a102.29,102.29,0,0,0,14.33.29,7.48,7.48,0,0,0,3.5-.78,4.62,4.62,0,0,0,1.89-4.8A4.22,4.22,0,0,1,342.67,161.83Z"/><path class="cls-29" d="M236.91,198.33c-1.4,4.52-3.06,8.94-4.82,13.3-2.94,7.28-4.6,15-7.14,22.36-2.07,6.06-3.24,12.91,1.85,17.83,2.38,2.29,5.41,3.55,8,5.51,2.81,2.15,5.55,4.35,8.15,6.75,5.46,5,10.44,10.56,15.49,16,5.23,5.65,10.21,12.79,16.21,17.63.19.16,9.6-11.39,9.6-11.39s-5.19-8.47-5.42-8.83c-4.44-6.93-4.71-7-10.22-13.09-5.24-5.81-10.55-11.57-16.7-16.43-2.39-1.89-4.87-3.66-7.41-5.34-1-.65,2-7.49,2.35-8.44,3.49-9.58,9.19-18.57,11.06-28.69.68-3.71,1.69-7.18-2.43-8.05a87.12,87.12,0,0,0-16.95-1.87,1.06,1.06,0,0,0-.63.13,1.24,1.24,0,0,0-.38.7C237.3,197.05,237.11,197.69,236.91,198.33Z"/><path class="cls-30" d="M242.55,200.34a14.68,14.68,0,0,1-4.65,8.95,8.81,8.81,0,0,1-5.59,2"/><path class="cls-19" d="M260.93,280.08c-5.05-5.44-10-11-15.49-16-2.6-2.4-5.33-4.6-8.14-6.75-2.57-2-5.6-3.22-8-5.51-5.09-4.92-3.92-11.77-1.85-17.83,2.53-7.41,4.2-15.08,7.13-22.36,1.77-4.36,3.42-8.78,4.82-13.3.2-.64.4-1.28.58-1.92a1.25,1.25,0,0,1,.39-.7.58.58,0,0,1,.14-.05c-.68,0-1.36-.07-2-.08a1,1,0,0,0-.63.13,1.24,1.24,0,0,0-.38.7c-.19.64-.38,1.28-.58,1.92-1.4,4.52-3.06,8.94-4.82,13.3-2.94,7.28-4.6,15-7.14,22.36-2.07,6.06-3.24,12.91,1.85,17.83,2.38,2.29,5.41,3.55,8,5.51,2.81,2.15,5.55,4.35,8.15,6.75,5.46,5,10.44,10.56,15.49,16,5.23,5.65,10.21,12.79,16.21,17.63a8.33,8.33,0,0,0,1.14-1.2C270.37,291.73,265.76,285.28,260.93,280.08Z"/><path class="cls-31" d="M250.88,240q-.3,6.45-.56,12.9c-.3,7.75-.48,15.48-.48,23.23-.26,10.19-1.69,20.92-3.11,31,4.33,1.28,9.64,1.35,14.12,1.07.43,0,1.42-5.33,1.55-5.94.4-1.9.73-3.83,1-5.77.66-5.24.55-10.5.7-15.78q.18-6.65.53-13.28a113.37,113.37,0,0,1,1.73-12.3c1.78-8.36,4.16-16.59,6.16-24.9,2.37-9.88,4.69-20.32,3-30.5a5.88,5.88,0,0,0-.81-2.43,5.22,5.22,0,0,0-1.65-1.42,23.11,23.11,0,0,0-11.84-3.48c-3,0-6.54.93-7.76,3.91a10.45,10.45,0,0,0-.58,3.62C252.24,213.28,251.5,226.63,250.88,240Z"/><path class="cls-19" d="M249.52,307.28c1.43-10.08,2.86-20.81,3.12-31,0-7.75.18-15.48.48-23.23q.25-6.45.56-12.9c.62-13.36,1.35-26.71,1.95-40.07a10.94,10.94,0,0,1,.58-3.62c1.05-2.54,3.74-3.6,6.38-3.84-.45,0-.9-.06-1.36-.07-3,0-6.54.92-7.76,3.91a10.45,10.45,0,0,0-.58,3.62c-.6,13.36-1.34,26.71-2,40.07q-.3,6.45-.56,12.9c-.3,7.75-.48,15.48-.48,23.23-.26,10.19-1.69,20.92-3.11,31a38.38,38.38,0,0,0,11.35,1.18A34.35,34.35,0,0,1,249.52,307.28Z"/><path class="cls-32" d="M270.05,92.39c-3.59-.63-7.72-.7-10.9,1.33-6.21,4-9.45,11.09-10.38,18.21a41.45,41.45,0,0,0,.78,14.08c.79,3.59,2.37,6.79,6.19,7.76,14.2,3.6,26.58-11,28.13-23.91.46-3.88.08-8-2.23-11.3C279,94.85,274.35,93.16,270.05,92.39Z"/><path class="cls-33" d="M266.94,204.83a14.59,14.59,0,0,0,3.09,9.59,8.77,8.77,0,0,0,5.18,2.94"/><path class="cls-19" d="M251.4,127.79a41.24,41.24,0,0,1-.78-14.09c.92-7.12,4.17-14.23,10.37-18.2,3.18-2,7.32-2,10.9-1.33A21,21,0,0,1,281,97.8c-2.69-3.17-7-4.7-11-5.41-3.59-.63-7.72-.7-10.9,1.33-6.21,4-9.45,11.09-10.38,18.21a41.45,41.45,0,0,0,.78,14.08c.61,2.76,1.69,5.27,3.88,6.74A13.16,13.16,0,0,1,251.4,127.79Z"/><path class="cls-1" d="M278.28,177.4c-1.42,9.42-.86,21.62-.49,31.11,0,0-29.72-2.74-33.17-3.24l-.61-.09c-3-.48-5.87-1.15-8.81-1.72,0,0,3.22-14.15,3.31-15.09.86-8.33,1.59-16.64,1.74-25,.07-4.08,0-8.16-.11-12.24-.07-3.6,0-7.64,1.64-10.92,1.1-2.17,2.95-2.38,5.21-2.33,10.19.25,20.29,1.61,30.42,2.73a11,11,0,0,1,3.32.71c3.11,1.38,2.74,4.89,2.46,7.7C282.22,158.55,279.71,167.91,278.28,177.4Z"/><g class="cls-34"><path class="cls-25" d="M271.48,145.41c1.78-1.55,4-4.22,2.78-6.72-3-6.23-13.94-5.77-19.06-2.82-3.2,1.85-3.46,6.51-1.65,9.4,3.42,5.46,11.89,4.23,16.51,1.21A13.2,13.2,0,0,0,271.48,145.41Z"/><path class="cls-28" d="M269.06,143.8c1.31-1.14,2.92-3.09,2-4.93-2.18-4.57-10.23-4.24-14-2.07-2.35,1.36-2.54,4.78-1.21,6.9,2.51,4,8.73,3.11,12.12.89A8.93,8.93,0,0,0,269.06,143.8Z"/></g><path class="cls-19" d="M247.1,205.27l-.61-.09c-3-.48-5.87-1.15-8.82-1.72,0,0,3.22-14.15,3.32-15.09.85-8.33,1.58-16.64,1.73-25,.07-4.08,0-8.16-.1-12.24-.08-3.6,0-7.64,1.63-10.92a4,4,0,0,1,3.63-2.29l-.89,0c-2.26-.05-4.11.16-5.21,2.33-1.66,3.28-1.71,7.32-1.64,10.92.09,4.08.18,8.16.11,12.24-.15,8.38-.88,16.69-1.74,25-.09.94-3.34,15.08-3.31,15.09,2.94.57,5.85,1.24,8.81,1.72l.61.09c3.45.5,33.17,3.28,33.17,3.24v-.22C270.58,207.64,249.94,205.68,247.1,205.27Z"/><path class="cls-35" d="M284.83,118.25c-1.75,4.14-4.91,8.14-9.34,8.94-.36-3.13.75-6.17,1.3-9.21.59-3.32,1.42-9.83-1.19-12.57-1-1-2.73-1-4-1.21q-2.69-.48-5.37-.86c-6.15-.85-16.12.4-19.26-6.48a5.58,5.58,0,0,1,.72-6.19c1.69-1.73,4.3-2.52,6.6-3,11.4-2.23,30.25,0,32.68,14.11A30,30,0,0,1,284.83,118.25Z"/><path class="cls-19" d="M276.77,125.2c-.35-3.12.75-6.17,1.3-9.21.6-3.32,1.42-9.83-1.19-12.56-1-1-2.73-1-4-1.21-1.78-.33-3.57-.61-5.37-.86-6.14-.86-16.12.39-19.26-6.49a6.13,6.13,0,0,1-.32-4.41l-.24.21a5.58,5.58,0,0,0-.72,6.19c3.14,6.88,13.11,5.63,19.26,6.48q2.69.38,5.37.86c1.3.24,3,.19,4,1.21,2.61,2.74,1.78,9.25,1.19,12.57-.55,3-1.66,6.08-1.3,9.21,3.65-.66,6.44-3.5,8.29-6.79A11.46,11.46,0,0,1,276.77,125.2Z"/><polygon class="cls-2" points="354.02 87.05 338.28 121.59 359.58 124.41 354.02 87.05"/><g class="cls-36"><path class="cls-20" d="M354.74,102.32a9.25,9.25,0,0,0,3.75-.61c4-1.61,3.54-8.24,3.05-11.62a10.78,10.78,0,0,0-6.77-8.81,5.53,5.53,0,0,0-3.26-.32c-2.39.58-3.65,3.35-4.72,5.31a16.12,16.12,0,0,0-2.14,7.83C344.7,98.93,350,102.15,354.74,102.32Z"/></g><polygon class="cls-10" points="337.96 122.52 312.07 288.87 333.86 297.24 359.58 125.2 337.96 122.52"/><polygon class="cls-7" points="318.42 294.49 345.37 123.44 337.96 122.52 312.07 288.87 318.42 294.49"/><polygon class="cls-19" points="326.78 295.98 353.2 124.41 359.58 125.2 333.86 297.24 326.78 295.98"/><path class="cls-3" d="M312.07,288.87l22.52,3.4-3.42,23.28a3.87,3.87,0,0,1-4.39,3.26l-15.56-2.27A3.88,3.88,0,0,1,308,312Z"/><g class="cls-37"><polygon class="cls-38" points="306.51 305.54 333.69 309.57 331.19 321.35 305.86 318.12 306.51 305.54"/><polyline class="cls-39" points="307.55 300.33 335.22 304.43 336.4 298.66 308.66 294.74"/></g><path class="cls-2" d="M353.48,123.78a4.17,4.17,0,1,1-4.16-3.84A4,4,0,0,1,353.48,123.78Z"/><path class="cls-2" d="M359.58,124.77a3.29,3.29,0,1,1-3.28-3.5A3.39,3.39,0,0,1,359.58,124.77Z"/><path class="cls-2" d="M345.5,123a3.78,3.78,0,1,1-3.77-3.49A3.64,3.64,0,0,1,345.5,123Z"/><path class="cls-32" d="M279.86,114.3c2.62.06,3.55,2.8,2.81,5-1.06,3.14-6.18,4.53-9.12,4.4a1.37,1.37,0,0,1-.82-.22,1.3,1.3,0,0,1-.35-1.13,7.1,7.1,0,0,1,1.71-3.69c.72-.94,1.25-2.26,2.25-3a6.17,6.17,0,0,1,3.42-1.39Z"/><path class="cls-28" d="M351.17,168.22a5.55,5.55,0,0,0,1.14.42c1.67.46,2.75-.35,3.82-2a10.4,10.4,0,0,0,1.56-5.17,9,9,0,0,0-1.55-5.52c-1.08-1.41-2.71-2-3.9-1.1a6.12,6.12,0,0,0-1.35,1.6,12.33,12.33,0,0,0-1.93,5.06,8.59,8.59,0,0,0,.29,4.35A4,4,0,0,0,351.17,168.22Z"/><path class="cls-40" d="M267.86,114.88c0,1.55-.73,2.8-1.64,2.8s-1.65-1.25-1.65-2.8.74-2.81,1.65-2.81S267.86,113.33,267.86,114.88Z"/><path class="cls-40" d="M255.91,114.48c0,1.55-.74,2.8-1.65,2.8s-1.64-1.25-1.64-2.8.74-2.81,1.64-2.81S255.91,112.93,255.91,114.48Z"/><path class="cls-9" d="M253.38,123.28a18.72,18.72,0,0,0,4.6,1c3.88.33,8.84-1.39,8.84-1.39s-1.11,6-4.52,7.13-6.65.76-8-.87S253.38,123.28,253.38,123.28Z"/><path class="cls-26" d="M265.38,107.51a11.41,11.41,0,0,1,5,1.89.76.76,0,0,0,1-.27.77.77,0,0,0-.27-1,12.92,12.92,0,0,0-5.75-2.1.76.76,0,0,0-.75.75.77.77,0,0,0,.75.75Z"/><path class="cls-26" d="M251.42,107.75a9.53,9.53,0,0,1,4.82-.35.75.75,0,0,0,.4-1.45,11.28,11.28,0,0,0-5.62.35.75.75,0,1,0,.4,1.45Z"/><ellipse class="cls-28" cx="258.37" cy="120.58" rx="1.94" ry="0.91"/><polygon class="cls-25" points="267.63 157.61 276.58 158.98 274.97 168.17 267.23 166.6 267.63 157.61"/></g></g></svg>